# 3ds Max Wavefront OBJ Exporter v0.97b - (c)2007 guruware
# File Created: 12.12.2015 06:10:46

#
# object Box001
#

v  1.5422 19.6537 -2.1049
v  9.3133 19.6537 -2.1049
v  9.3133 19.6537 -9.7991
v  1.5422 19.6537 -9.7991
v  1.5422 2.3230 -1.9181
v  9.3133 2.3230 -1.9181
v  9.3133 19.4668 -1.9181
v  1.5422 19.4668 -1.9181
v  9.4651 2.3230 -2.1049
v  9.4651 2.3230 -9.7991
v  9.4651 19.4668 -9.7991
v  9.4651 19.4668 -2.1049
v  9.3133 2.3230 -9.9859
v  1.5422 2.3230 -9.9859
v  1.5422 19.4668 -9.9859
v  9.3133 19.4668 -9.9859
v  1.3904 2.3230 -9.7991
v  1.3904 2.3230 -2.1049
v  1.3904 19.4668 -2.1049
v  1.3904 19.4668 -9.7991
v  1.5422 2.1362 -2.1049
v  9.3133 2.1362 -2.1049
v  1.5422 2.1362 -9.7991
v  9.3133 2.1362 -9.7991
v  -7.1102 19.6537 -2.1049
v  0.6609 19.6537 -2.1049
v  0.6609 19.6537 -9.7991
v  -7.1102 19.6537 -9.7991
v  -7.1102 2.3230 -1.9181
v  0.6609 2.3230 -1.9181
v  0.6609 19.4668 -1.9181
v  -7.1102 19.4668 -1.9181
v  0.8126 2.3230 -2.1049
v  0.8126 2.3230 -9.7991
v  0.8126 19.4668 -9.7991
v  0.8126 19.4668 -2.1049
v  0.6609 2.3230 -9.9859
v  -7.1102 2.3230 -9.9859
v  -7.1102 19.4668 -9.9859
v  0.6609 19.4668 -9.9859
v  -7.2620 2.3230 -9.7991
v  -7.2620 2.3230 -2.1049
v  -7.2620 19.4668 -2.1049
v  -7.2620 19.4668 -9.7991
v  -7.1102 2.1362 -2.1049
v  0.6609 2.1362 -2.1049
v  -7.1102 2.1362 -9.7991
v  0.6609 2.1362 -9.7991
v  1.5422 -0.1369 -9.7991
v  1.5422 -0.1369 -2.1049
v  9.3133 -0.1369 -9.7991
v  9.3133 -0.1369 -2.1049
v  -7.1102 -0.1369 -9.7991
v  -7.1102 -0.1369 -2.1049
v  0.6609 -0.1369 -9.7991
v  0.6609 -0.1369 -2.1049
# 56 vertices

vn 0.0000 1.0000 -0.0000
vn 0.0000 0.0000 1.0000
vn 1.0000 0.0000 0.0000
vn 0.0000 0.0000 -1.0000
vn -1.0000 0.0000 0.0000
vn -0.5774 -0.5773 0.5773
vn 0.5774 -0.5773 0.5773
vn -0.5774 -0.5774 -0.5774
vn 0.5774 -0.5774 -0.5774
vn -0.5774 0.5774 0.5773
vn 0.5774 0.5774 0.5773
vn -0.5773 0.5774 -0.5773
vn 0.5773 0.5774 -0.5773
vn -0.7071 -0.7071 0.0000
vn 0.0000 -0.7071 -0.7071
vn 0.7071 -0.7071 0.0000
vn 0.0000 -0.7071 0.7071
vn 0.0000 0.7071 0.7071
vn 0.7071 0.7071 0.0000
vn 0.0000 0.7071 -0.7071
vn -0.7071 0.7071 0.0000
vn 0.7071 0.0000 0.7071
vn -0.7071 0.0000 0.7071
vn 0.7071 0.0000 -0.7071
vn -0.7071 0.0000 -0.7071
vn -1.0000 0.0000 -0.0000
vn 1.0000 0.0000 -0.0000
# 27 vertex normals

vt 0.9916 0.7155 0.0000
vt 0.6812 0.7155 0.0000
vt 0.6812 0.3453 0.0000
vt 0.9916 0.3453 0.0000
vt 0.9913 0.9918 0.0000
vt 0.6810 0.9918 0.0000
vt 0.6810 0.3379 0.0000
vt 0.9913 0.3379 0.0000
vt 0.9923 0.9919 0.0000
vt 0.6775 0.9919 0.0000
vt 0.6775 0.3380 0.0000
vt 0.9923 0.3380 0.0000
vt 0.0023 0.3357 0.0000
vt 0.3298 0.3357 0.0000
vt 0.3298 0.9786 0.0000
vt 0.0023 0.9786 0.0000
vt 0.9925 0.9930 0.0000
vt 0.6776 0.9930 0.0000
vt 0.6776 0.3391 0.0000
vt 0.9925 0.3391 0.0000
vt 0.9284 0.9613 0.0000
vt 0.9284 0.9512 0.0000
vt 0.9359 0.9563 0.0000
vt 0.9092 0.7888 0.0000
vt 0.9018 0.7939 0.0000
vt 0.9018 0.7838 0.0000
vt 0.9554 0.8870 0.0000
vt 0.9554 0.8769 0.0000
vt 0.9628 0.8820 0.0000
vt 0.8993 0.5835 0.0000
vt 0.8918 0.5885 0.0000
vt 0.8918 0.5784 0.0000
vt 0.9092 0.7499 0.0000
vt 0.9018 0.7449 0.0000
vt 0.9092 0.7399 0.0000
vt 0.9721 0.9613 0.0000
vt 0.9646 0.9563 0.0000
vt 0.9721 0.9512 0.0000
vt 0.9359 0.9174 0.0000
vt 0.9284 0.9123 0.0000
vt 0.9359 0.9073 0.0000
vt 0.9454 0.7939 0.0000
vt 0.9380 0.7888 0.0000
vt 0.9454 0.7838 0.0000
vt 0.9920 0.3453 0.0000
vt 0.9980 0.3453 0.0000
vt 0.9980 0.7155 0.0000
vt 0.9920 0.7155 0.0000
vt 0.9920 0.7227 0.0000
vt 0.6816 0.7227 0.0000
vt 0.6816 0.7155 0.0000
vt 0.6755 0.7155 0.0000
vt 0.6755 0.3453 0.0000
vt 0.6816 0.3453 0.0000
vt 0.6816 0.3382 0.0000
vt 0.9920 0.3382 0.0000
vt 0.9916 0.7226 0.0000
vt 0.6812 0.7226 0.0000
vt 0.6751 0.7155 0.0000
vt 0.6751 0.3453 0.0000
vt 0.6812 0.3381 0.0000
vt 0.9916 0.3381 0.0000
vt 0.9976 0.3453 0.0000
vt 0.9976 0.7155 0.0000
vt 0.9984 0.9919 0.0000
vt 0.9984 0.3380 0.0000
vt 0.6715 0.3391 0.0000
vt 0.6715 0.9930 0.0000
vt 0.6714 0.9919 0.0000
vt 0.6714 0.3380 0.0000
vt 0.9985 0.9930 0.0000
vt 0.9985 0.3391 0.0000
vt 0.3334 0.3408 0.0000
vt 0.6645 0.3408 0.0000
vt 0.6645 0.9810 0.0000
vt 0.3334 0.9810 0.0000
vt -1.3375 0.1505 0.0000
vt -0.7348 0.1505 0.0000
vt -0.7348 0.3286 0.0000
vt -1.3375 0.3286 0.0000
vt 0.0145 0.1505 0.0000
vt 0.0145 0.3286 0.0000
vt 0.6171 0.1505 0.0000
vt 0.6171 0.3286 0.0000
vt 1.3664 0.1505 0.0000
vt 1.3664 0.3286 0.0000
vt -1.3375 0.1512 0.0000
vt -0.7348 0.1512 0.0000
vt -0.7348 0.3293 0.0000
vt -1.3375 0.3293 0.0000
vt 0.0145 0.1512 0.0000
vt 0.0145 0.3293 0.0000
vt 0.6171 0.1512 0.0000
vt 0.6171 0.3293 0.0000
vt 1.3664 0.1512 0.0000
vt 1.3664 0.3293 0.0000
# 96 texture coords

g Box001
s 4
f 1/1/1 2/2/1 3/3/1 4/4/1 
s 8
f 5/5/2 6/6/2 7/7/2 8/8/2 
s 16
f 9/9/3 10/10/3 11/11/3 12/12/3 
s 32
f 13/13/4 14/14/4 15/15/4 16/16/4 
s 64
f 17/17/5 18/18/5 19/19/5 20/20/5 
s off
f 5/21/6 18/22/6 21/23/6 
f 22/24/7 9/25/7 6/26/7 
f 17/27/8 14/28/8 23/29/8 
f 24/30/9 13/31/9 10/32/9 
f 8/33/10 1/34/10 19/35/10 
f 12/36/11 2/37/11 7/38/11 
f 20/39/12 4/40/12 15/41/12 
f 16/42/13 3/43/13 11/44/13 
f 21/45/14 18/46/14 17/47/14 23/48/14 
f 23/48/15 14/49/15 13/50/15 24/51/15 
f 24/51/16 10/52/16 9/53/16 22/54/16 
f 22/54/17 6/55/17 5/56/17 21/45/17 
f 1/1/18 8/57/18 7/58/18 2/2/18 
f 2/2/19 12/59/19 11/60/19 3/3/19 
f 3/3/20 16/61/20 15/62/20 4/4/20 
f 4/4/21 20/63/21 19/64/21 1/1/21 
f 6/65/22 9/9/22 12/12/22 7/66/22 
f 8/67/23 19/19/23 18/18/23 5/68/23 
f 10/10/24 13/69/24 16/70/24 11/11/24 
f 14/71/25 17/17/25 20/20/25 15/72/25 
s 4
f 25/1/1 26/2/1 27/3/1 28/4/1 
s 8
f 29/5/2 30/6/2 31/7/2 32/8/2 
s 16
f 33/9/3 34/10/3 35/11/3 36/12/3 
s 32
f 37/73/4 38/74/4 39/75/4 40/76/4 
s 64
f 41/17/5 42/18/5 43/19/5 44/20/5 
s off
f 29/21/6 42/22/6 45/23/6 
f 46/24/7 33/25/7 30/26/7 
f 41/27/8 38/28/8 47/29/8 
f 48/30/9 37/31/9 34/32/9 
f 32/33/10 25/34/10 43/35/10 
f 36/36/11 26/37/11 31/38/11 
f 44/39/12 28/40/12 39/41/12 
f 40/42/13 27/43/13 35/44/13 
f 45/45/14 42/46/14 41/47/14 47/48/14 
f 47/48/15 38/49/15 37/50/15 48/51/15 
f 48/51/16 34/52/16 33/53/16 46/54/16 
f 46/54/17 30/55/17 29/56/17 45/45/17 
f 25/1/18 32/57/18 31/58/18 26/2/18 
f 26/2/19 36/59/19 35/60/19 27/3/19 
f 27/3/20 40/61/20 39/62/20 28/4/20 
f 28/4/21 44/63/21 43/64/21 25/1/21 
f 30/65/22 33/9/22 36/12/22 31/66/22 
f 32/67/23 43/19/23 42/18/23 29/68/23 
f 34/10/24 37/69/24 40/70/24 35/11/24 
f 38/71/25 41/17/25 44/20/25 39/72/25 
f 21/77/26 23/78/26 49/79/26 50/80/26 
f 23/78/4 24/81/4 51/82/4 49/79/4 
f 24/81/27 22/83/27 52/84/27 51/82/27 
f 22/83/2 21/85/2 50/86/2 52/84/2 
f 45/87/26 47/88/26 53/89/26 54/90/26 
f 47/88/4 48/91/4 55/92/4 53/89/4 
f 48/91/27 46/93/27 56/94/27 55/92/27 
f 46/93/2 45/95/2 54/96/2 56/94/2 
# 42 polygons - 16 triangles

